<svg xmlns="http://www.w3.org/2000/svg" viewBox="0 0 24 24" fill="none" stroke="#b71c1c" stroke-width="2" stroke-linecap="round" stroke-linejoin="round">
  <path d="M19.178 13.107c.5-1.214.98-2.783-.476-4.647-1.95-2.484-1.578-4.875-1.578-4.875s-2.956 2.123-2.956 4.607c0 1.108.649 2.399 1.393 3.179 1.207 1.262 1.923 2.855 2.094 4.523.476 4.693-2.121 6.429-4.37 7.679-.89.494-1.987-1.147-.755-1.7 3.12-1.392 2.956-6.477 1.366-6.941-1.581-.463-2.23.765-1.283 1.63.741.672.255 1.548-.366 1.36-2.298-.697-3.911-2.932-3.77-5.423m4.123-1.432a4.09 4.09 0 0 0 2.56-3.51m-.392 13.593c-.446.54-1.412.54-1.858 0"></path>
</svg>